<?xml version="1.0" encoding="UTF-8"?>
<svg width="32px" height="30px" viewBox="0 0 32 30" version="1.1" xmlns="http://www.w3.org/2000/svg" xmlns:xlink="http://www.w3.org/1999/xlink">
    <!-- Generator: Sketch 40.3 (33839) - http://www.bohemiancoding.com/sketch -->
    <title>用户设置</title>
    <desc>Created with Sketch.</desc>
    <defs></defs>
    <g id="中层干部考核系统" stroke="none" stroke-width="1" fill="none" fill-rule="evenodd">
        <g id="后台_分数统计" transform="translate(-44.000000, -139.000000)">
            <g id="左侧边栏" transform="translate(-4.000000, 63.000000)">
                <g id="用户设置" transform="translate(48.000000, 76.000000)">
                    <path d="M11.1350046,27.7141169 L7.73308756,25.8286845 C7.88302304,25.4470524 8.18846083,24.5563337 8.18846083,23.6353593 C8.18846083,20.4373082 5.70547465,17.7932887 2.50757604,17.5501096 C2.42949309,17.0990499 2.24582488,15.9430085 2.24582488,15.0454202 C2.24582488,14.1491108 2.42938249,12.9920097 2.50746544,12.5406212 C5.70547465,12.2976248 8.18846083,9.65356882 8.18846083,6.45533496 C8.18846083,5.53684531 7.88464516,4.64857491 7.73504147,4.26683313 L11.3550599,2.29615104 C11.3551336,2.29615104 11.3551705,2.29618758 11.3552811,2.29618758 C11.4857512,2.42828258 12.0078157,2.94175396 12.7286267,3.45087698 C13.90647,4.28302071 15.0280553,4.70499391 16.0623041,4.70499391 C17.0863779,4.70499391 18.1990415,4.29120585 19.3694378,3.47514007 C20.0857143,2.97577345 20.6053088,2.47224117 20.735447,2.34233861 C20.7357051,2.34230207 20.736,2.34219245 20.7362212,2.34215591 L24.2258433,4.26380024 C24.0760553,4.64550548 23.7710968,5.53560292 23.7710968,6.45540804 C23.7710968,9.6536419 26.2540461,12.2976614 29.4520553,12.5406577 C29.5301014,12.9927406 29.7138065,14.1518514 29.7138065,15.0454568 C29.7138065,15.9426797 29.530212,17.0991596 29.4521659,17.5503289 C26.2541935,17.7932887 23.7711336,20.4373082 23.7711336,23.6356151 C23.7711336,24.5550914 24.0754654,25.4439464 24.2252166,25.8255786 L20.691871,27.7610353 C20.5394286,27.6005116 20.025106,27.0779781 19.3131429,26.5539099 C18.112553,25.6702071 16.9632811,25.2221437 15.8972903,25.2221437 C14.8415484,25.2221437 13.7009401,25.6618392 12.5072074,26.528916 C11.8055668,27.0386967 11.2877788,27.5562241 11.1350046,27.7141169 L11.1350046,27.7141169 Z" id="Path" fill="#FFFFFF"></path>
                    <path d="M31.6258802,11.942704 C31.4391152,10.9645067 30.8364608,10.332497 30.0906175,10.332497 C30.0810691,10.332497 30.0714101,10.3326066 30.0661382,10.3327893 L29.9288111,10.3327893 C27.7717972,10.3327893 26.0168848,8.59341048 26.0168848,6.45540804 C26.0168848,5.76157125 26.3545438,4.98369062 26.3574562,4.97700365 C26.744,4.11453106 26.4466359,3.05693057 25.6663963,2.51736906 L25.6191336,2.48440926 L21.6546359,0.301498173 L21.6044977,0.279683313 C21.3462857,0.168416565 21.0636682,0.111997564 20.764424,0.111997564 C20.1511889,0.111997564 19.5480553,0.355980512 19.1513733,0.764214373 C18.7165346,1.20906212 17.2156682,2.47892814 16.062341,2.47892814 C14.8986544,2.47892814 13.3888664,1.18414129 12.9521475,0.730998782 C12.5533641,0.314470158 11.9454378,0.065773447 11.3260092,0.065773447 C11.0326267,0.065773447 10.7551336,0.120219245 10.5013088,0.227503045 L10.4498065,0.249171742 L6.34543779,2.4838246 L6.29695853,2.51711328 C5.51417512,3.05619976 5.21511521,4.11285018 5.60125346,4.97488429 C5.60464516,4.98263094 5.94282028,5.7562363 5.94282028,6.45529842 C5.94282028,8.59330085 4.1879447,10.3326797 2.03089401,10.3326797 L1.89574194,10.3326797 C1.88634101,10.332497 1.87697696,10.3323873 1.86768664,10.3323873 C1.12254378,10.3323873 0.520442396,10.9644336 0.333714286,11.9427771 C0.320110599,12.0145067 0,13.7152253 0,15.0453837 C0,16.3755055 0.320110599,18.0761145 0.333751152,18.1480268 C0.520626728,19.1262607 1.12309677,19.7583069 1.86871889,19.7583069 C1.87815668,19.7583069 1.88792627,19.7581242 1.89356682,19.7579415 L2.03089401,19.7579415 C4.1879447,19.7579415 5.94282028,21.4973203 5.94282028,23.6352862 C5.94282028,24.3299635 5.60523502,25.106894 5.60224885,25.1136906 C5.216,25.9754324 5.51251613,27.0329963 6.29235023,27.5740195 L6.33865438,27.6059927 L10.2276129,29.7615713 L10.2770138,29.7831303 C10.5351521,29.8954933 10.8169954,29.9524604 11.1146912,29.9524604 C11.736553,29.9524604 12.3440369,29.6979172 12.7396866,29.271486 C13.2920184,28.6766017 14.7905622,27.448173 15.8973641,27.448173 C17.0957419,27.448173 18.632553,28.8252862 19.0760184,29.3071864 C19.4725161,29.7408161 20.084129,29.9998173 20.7122581,30 L20.7124424,30 C21.0043502,30 21.2811429,29.944933 21.5352627,29.8363337 L21.5857327,29.8147016 L25.6168848,27.6063581 L25.6645899,27.5733618 C26.4460461,27.0337637 26.7442212,25.9770037 26.358894,25.1169793 C26.3555023,25.109123 26.0168848,24.3251401 26.0168848,23.6353228 C26.0168848,21.4973569 27.7717972,19.7579781 29.9288111,19.7579781 L30.0620461,19.7579415 C30.070894,19.7581242 30.0797051,19.7581973 30.0885899,19.7581973 C30.8357972,19.7581608 31.4391152,19.1261145 31.6256221,18.1485749 C31.6289401,18.1313276 31.9597051,16.4087211 31.9597051,15.0453106 C31.9597051,13.7090499 31.6395207,12.0142509 31.6258802,11.942704 L31.6258802,11.942704 Z" id="Path" fill="#FFFFFF"></path>
                    <path d="M24.3024285,15.0248667 C24.3024285,10.4385929 20.5377985,6.70742387 15.9104999,6.70742387 C11.2833654,6.70742387 7.51895398,10.4385929 7.51895398,15.0248667 C7.51895398,19.6111946 11.2833654,23.3424178 15.9104999,23.3424178 C20.5378531,23.3424178 24.3024285,19.6111404 24.3024285,15.0248667 L24.3024285,15.0248667 Z M15.9104999,10.0077358 C18.7018335,10.0077358 20.9727128,12.2583992 20.9727128,15.0248667 C20.9727128,17.7915508 18.7018335,20.0423767 15.9104999,20.0423767 C13.119385,20.0423767 10.8486697,17.7915508 10.8486697,15.0248667 C10.8486697,12.258345 13.119385,10.0077358 15.9104999,10.0077358 L15.9104999,10.0077358 Z" id="Fill-2" fill="#2A2D34"></path>
                </g>
            </g>
        </g>
    </g>
</svg>