<?xml version="1.0" encoding="UTF-8"?>
<svg width="26px" height="29px" viewBox="0 0 26 29" version="1.1" xmlns="http://www.w3.org/2000/svg" xmlns:xlink="http://www.w3.org/1999/xlink">
    <!-- Generator: Sketch 40.3 (33839) - http://www.bohemiancoding.com/sketch -->
    <title>考核设置icon</title>
    <desc>Created with Sketch.</desc>
    <defs></defs>
    <g id="中层干部考核系统" stroke="none" stroke-width="1" fill="none" fill-rule="evenodd">
        <g id="后台_分数统计" transform="translate(-47.000000, -201.000000)" fill="#FFFFFF">
            <g id="左侧边栏" transform="translate(-4.000000, 63.000000)">
                <path d="M56.8140173,143.082594 C57.501284,143.082594 58.0592889,142.515555 58.0592889,141.815758 L58.0592889,139.281139 C58.0592889,138.581342 57.5012519,138.014336 56.8140173,138.014336 C56.1258198,138.014336 55.5687457,138.581342 55.5687457,139.281139 L55.5687457,141.815758 C55.5687457,142.515523 56.1258198,143.082594 56.8140173,143.082594 L56.8140173,143.082594 Z M75.0781827,141.815267 C75.0781827,141.115471 74.5211086,140.548465 73.832879,140.548465 L71.7574049,140.548465 L71.7574049,141.815267 C71.7574049,143.214927 70.6424543,144.34992 69.2668938,144.34992 C67.8913975,144.34992 66.7764469,143.214894 66.7764469,141.815267 L66.7764469,140.548465 L65.5312395,140.548465 L65.5312395,141.815267 C65.5312395,143.214927 64.4162247,144.34992 63.0407605,144.34992 C61.6652321,144.34992 60.5502494,143.214894 60.5502494,141.815267 L60.5502494,140.548465 L59.3049457,140.548465 L59.3049457,141.815267 C59.3049457,143.214927 58.1899951,144.34992 56.8144346,144.34992 C55.4389383,144.34992 54.3239877,143.214894 54.3239877,141.815267 L54.3239877,140.548465 L52.2484815,140.548465 C51.560316,140.548465 51.0022469,141.115471 51.0022469,141.815267 L51.0022469,163.778381 C51.0022469,164.478178 51.560316,165.046231 52.2484815,165.046231 L60.8077457,165.046231 L75.0780543,150.47288 L75.0780543,141.815235 L75.0781827,141.815267 Z M63.2478617,160.822378 L55.3612914,160.822378 C54.7886815,160.822378 54.3240519,160.349541 54.3240519,159.765678 C54.3240519,159.182863 54.7886815,158.709993 55.3612914,158.709993 L63.2477975,158.709993 C63.8213704,158.709993 64.2860321,159.182765 64.2860321,159.765678 C64.2860321,160.349573 63.8214025,160.822378 63.2478617,160.822378 L63.2478617,160.822378 Z M66.3614099,155.753106 L55.5692272,155.753106 C54.8809654,155.753106 54.3240198,155.1861 54.3240198,154.486304 C54.3240198,153.786507 54.8809654,153.219501 55.5692272,153.219501 L66.3613778,153.219501 C67.0496395,153.219501 67.6066494,153.786507 67.6066494,154.486304 C67.6066815,155.1861 67.0497037,155.753106 66.361442,155.753106 L66.3614099,155.753106 Z M70.5122617,150.262647 L55.5692914,150.262647 C54.8810296,150.262647 54.324084,149.695641 54.324084,148.995844 C54.324084,148.296047 54.8810296,147.728027 55.5692914,147.728027 L70.5122617,147.728027 C71.2004593,147.728027 71.7574691,148.296015 71.7574691,148.995844 C71.7575012,149.695641 71.2004593,150.262647 70.5122617,150.262647 L70.5122617,150.262647 Z M69.2665086,143.082594 C69.9547704,143.082594 70.5118123,142.515555 70.5118123,141.815758 L70.5118123,139.281139 C70.5118123,138.581342 69.9548025,138.014336 69.2665086,138.014336 C68.579242,138.014336 68.0213012,138.581342 68.0213012,139.281139 L68.0213012,141.815758 C68.0213012,142.515523 68.5792741,143.082594 69.2665086,143.082594 L69.2665086,143.082594 Z M63.0403432,143.082594 C63.7276099,143.082594 64.2855506,142.515555 64.2855506,141.815758 L64.2855506,139.281139 C64.2855506,138.581342 63.7275778,138.014336 63.0403432,138.014336 C62.3520815,138.014336 61.7950395,138.581342 61.7950395,139.281139 L61.7950395,141.815758 C61.7950074,142.515523 62.3519852,143.082594 63.0403432,143.082594 L63.0403432,143.082594 Z M64.1592099,166.999378 L67.2241926,166.21736 L64.9241556,163.866102 L64.159242,166.999444 L64.1592099,166.999378 Z M75.8496123,153.877238 C75.5317383,153.553132 75.0174519,153.553132 74.6996099,153.877238 L72.9760667,155.639659 L75.2751407,157.990918 L76.998684,156.227449 L76.998684,155.052851 L75.8497086,153.877173 L75.8496123,153.877238 Z M65.5036025,163.279261 L67.8025481,165.629505 L74.6994815,158.57874 L72.4014346,156.227515 L65.5034741,163.279261 L65.5036025,163.279261 Z" id="考核设置icon"></path>
            </g>
        </g>
    </g>
</svg>