<?xml version="1.0" encoding="UTF-8"?>
<svg width="299px" height="426px" viewBox="0 0 299 426" version="1.1" xmlns="http://www.w3.org/2000/svg" xmlns:xlink="http://www.w3.org/1999/xlink">
    <!-- Generator: Sketch 40.3 (33839) - http://www.bohemiancoding.com/sketch -->
    <title>timeline</title>
    <desc>Created with Sketch.</desc>
    <defs></defs>
    <g id="Page-1" stroke="none" stroke-width="1" fill="none" fill-rule="evenodd">
        <g id="timeline" transform="translate(2.000000, -40.000000)">
            <g id="中层干部考核系统">
                <g id="登录">
                    <g id="考核结果">
                        <g id="Group">
                            <text id="提交审核登记表" fill="#FFFFFF" font-family="STHeitiSC-Medium, Heiti SC" font-size="26" font-weight="bold">
                                <tspan x="116" y="75">提交审核登记表</tspan>
                            </text>
                            <g id="评审icon" transform="translate(0.000000, 42.000000)">
                                <circle id="Oval" stroke="#FFFFFF" stroke-width="3" cx="41" cy="41" r="41"></circle>
                                <path d="M31.6000074,28.4663973 C32.4987407,28.4663973 33.2284395,27.7429345 33.2284395,26.8500903 L33.2284395,23.6162652 C33.2284395,22.723421 32.4986988,22 31.6000074,22 C30.7000568,22 29.9715753,22.723421 29.9715753,23.6162652 L29.9715753,26.8500903 C29.9715753,27.7428928 30.7000568,28.4663973 31.6000074,28.4663973 L31.6000074,28.4663973 L31.6000074,28.4663973 Z M55.483916,26.8494639 C55.483916,25.9566196 54.7554346,25.2331986 53.855442,25.2331986 L51.1413605,25.2331986 L51.1413605,26.8494639 C51.1413605,28.6352359 49.6833481,30.0833307 47.8845383,30.0833307 C46.0858123,30.0833307 44.6278,28.6351941 44.6278,26.8494639 L44.6278,25.2331986 L42.9994519,25.2331986 L42.9994519,26.8494639 C42.9994519,28.6352359 41.5413556,30.0833307 39.7426716,30.0833307 C37.9439037,30.0833307 36.4858494,28.6351941 36.4858494,26.8494639 L36.4858494,25.2331986 L34.8573753,25.2331986 L34.8573753,26.8494639 C34.8573753,28.6352359 33.399363,30.0833307 31.6005531,30.0833307 C29.8018272,30.0833307 28.3438148,28.6351941 28.3438148,26.8494639 L28.3438148,25.2331986 L25.6296914,25.2331986 C24.7297827,25.2331986 24,25.9566196 24,26.8494639 L24,54.8713679 C24,55.7642122 24.7297827,56.4889695 25.6296914,56.4889695 L36.8225753,56.4889695 L55.4837481,37.8953837 L55.4837481,26.8494221 L55.483916,26.8494639 L55.483916,26.8494639 Z M40.0134963,51.0999153 L29.7002889,51.0999153 C28.9514914,51.0999153 28.3438988,50.49664 28.3438988,49.7517122 C28.3438988,49.0081208 28.9514914,48.4048036 29.7002889,48.4048036 L40.0134123,48.4048036 C40.7634691,48.4048036 41.3711037,49.0079955 41.3711037,49.7517122 C41.3711037,50.4966817 40.7635111,51.0999153 40.0134963,51.0999153 L40.0134963,51.0999153 L40.0134963,51.0999153 Z M44.0850593,44.6322235 L29.9722049,44.6322235 C29.0721704,44.6322235 28.3438568,43.9088025 28.3438568,43.0159582 C28.3438568,42.123114 29.0721704,41.399693 29.9722049,41.399693 L44.0850173,41.399693 C44.9850519,41.399693 45.7134494,42.123114 45.7134494,43.0159582 C45.7134914,43.9088025 44.9851358,44.6322235 44.0851012,44.6322235 L44.0850593,44.6322235 L44.0850593,44.6322235 Z M49.5130963,37.6271546 L29.9722889,37.6271546 C29.0722543,37.6271546 28.3439407,36.9037336 28.3439407,36.0108894 C28.3439407,35.1180451 29.0722543,34.3933296 29.9722889,34.3933296 L49.5130963,34.3933296 C50.4130469,34.3933296 51.1414444,35.1180034 51.1414444,36.0108894 C51.1414864,36.9037336 50.4130469,37.6271546 49.5130963,37.6271546 L49.5130963,37.6271546 L49.5130963,37.6271546 Z M47.8840346,28.4663973 C48.7840691,28.4663973 49.5125086,27.7429345 49.5125086,26.8500903 L49.5125086,23.6162652 C49.5125086,22.723421 48.7841111,22 47.8840346,22 C46.9853012,22 46.2556864,22.723421 46.2556864,23.6162652 L46.2556864,26.8500903 C46.2556864,27.7428928 46.9853432,28.4663973 47.8840346,28.4663973 L47.8840346,28.4663973 L47.8840346,28.4663973 Z M39.7421259,28.4663973 C40.6408593,28.4663973 41.3704741,27.7429345 41.3704741,26.8500903 L41.3704741,23.6162652 C41.3704741,22.723421 40.6408173,22 39.7421259,22 C38.8420914,22 38.1136519,22.723421 38.1136519,23.6162652 L38.1136519,26.8500903 C38.1136099,27.7428928 38.8419654,28.4663973 39.7421259,28.4663973 L39.7421259,28.4663973 L39.7421259,28.4663973 Z M41.2052593,58.9809153 L45.2133136,57.9831682 L42.2055728,54.9832867 L41.2053012,58.9809989 L41.2052593,58.9809153 L41.2052593,58.9809153 Z M56.4927086,42.2388747 C56.0770272,41.82536 55.4044988,41.82536 54.9888593,42.2388747 L52.7349951,44.4874808 L55.7414765,47.4873623 L57.9953407,45.2374199 L57.9953407,43.7387946 L56.4928346,42.2387912 L56.4927086,42.2388747 L56.4927086,42.2388747 Z M42.9633111,54.2345587 L45.9696247,57.2331456 L54.9886914,48.2373431 L51.9835531,45.2375034 L42.9631432,54.2345587 L42.9633111,54.2345587 L42.9633111,54.2345587 Z" id="Shape" fill="#FFFFFF"></path>
                            </g>
                            <g id="在线考核icon" transform="translate(0.000000, 202.000000)">
                                <circle id="Oval" stroke="#FFFFFF" stroke-width="3" cx="41" cy="41" r="41"></circle>
                                <path d="M53.8483911,27 L29.0942416,27 C27.3857779,27 26,28.4247068 26,30.1789669 L26,46.0827414 C26,47.8368707 27.3857779,49.2616211 29.0942416,49.2616211 L53.8483911,49.2616211 C55.5567682,49.2616211 56.942676,47.8368707 56.942676,46.0804737 L56.942676,30.1789669 C56.9426327,28.4247068 55.5567682,27 53.8483911,27 L53.8483911,27 L53.8483911,27 Z M44.0218673,51.4877744 L38.9229735,51.4877744 C38.9229735,51.4877744 37.8995838,54.455194 34.8407151,54.455194 L34.8407151,55.9400812 L48.1018743,55.9400812 L48.1018743,54.455194 C45.0407542,54.455194 44.0218673,51.4877744 44.0218673,51.4877744 L44.0218673,51.4877744 L44.0218673,51.4877744 Z M40.3891955,43.7917414 L38.1652919,46.0307158 L35.9402626,43.7917414 L31.4912863,39.3103038 L33.7151899,37.0704571 L38.1645126,41.550194 L49.2266634,30.4089609 L51.4513464,32.6488947 L40.3891955,43.7917414 L40.3891955,43.7917414 L40.3891955,43.7917414 Z" id="iconfont-online" fill="#FFFFFF"></path>
                            </g>
                            <g id="考核结果icon" transform="translate(0.000000, 382.000000)">
                                <path d="M27.7682446,60.4047038 C26.3158196,60.4047038 25.7683058,59.8542058 25.7683058,58.3940779 L25.7683058,27.9682031 C25.7683058,26.5000139 26.463055,26.105541 27.9155382,26.105541 L30.4964006,26.105541 C30.9831376,26.105541 31.5230398,25.4859972 31.5230398,24.7282448 C31.5230398,24.1373825 31.1261896,23.3507733 30.5454985,23.3507733 L26.8848899,23.3507733 C24.4589327,23.3507733 23.0281804,24.7891711 23.0281804,27.2280334 L23.0281804,59.076943 C23.0281804,61.5158637 24.5570703,62.9542615 26.8848899,62.9542615 L40.4655321,62.9542615 C40.4655321,62.9542615 39.1873609,61.5707149 38.626367,60.4047038 L27.7682446,60.4047038" id="Fill-1" fill="#FFFFFF"></path>
                                <path d="M50.6895657,26.105541 L53.6316024,26.105541 C55.0840275,26.105541 55.4843058,26.6066787 55.4843058,28.0668651 L55.4843058,38.6830515 C56.0966636,38.9831266 57.5690183,39.7172796 58.1263517,40.0960974 L58.1263517,27.2280334 C58.1263517,24.7891711 56.6955994,23.3507733 54.2696422,23.3507733 L50.6895657,23.3507733 C50.1032385,23.3507733 49.6629266,24.1537969 49.6629266,24.777605 C49.6629266,25.4695828 50.2028287,26.105541 50.6895657,26.105541" id="Fill-2" fill="#FFFFFF"></path>
                                <path d="M29.7250703,30.7979166 C29.7250703,31.8949986 30.4572385,32.877822 31.5484893,32.877822 L49.6059847,32.877822 C50.6895657,32.877822 51.4294037,31.895057 51.4294037,30.7979166 C51.4294037,29.7006592 50.6974098,28.718128 49.6059847,28.718128 L45.837419,28.718128 L45.837419,24.2189875 C45.837419,22.4745563 44.4321743,21.0617441 42.6970153,21.0617441 L38.4574587,21.0617441 C36.7224159,21.0617441 35.3169969,22.4745563 35.3169969,24.2189875 L35.3169969,28.718128 L31.5484893,28.718128 C30.4572385,28.718128 29.7250703,29.7006592 29.7250703,30.7979166 L29.7250703,30.7979166 L29.7250703,30.7979166 Z M40.577208,23.0349847 C41.7234832,23.0349847 42.657737,23.9741725 42.657737,25.1266314 C42.657737,26.279032 41.7234832,27.218395 40.577208,27.218395 C39.4309908,27.218395 38.4967951,26.279032 38.4967951,25.1266314 C38.4967951,23.9741725 39.4309908,23.0349847 40.577208,23.0349847 L40.577208,23.0349847 L40.577208,23.0349847 Z" id="Fill-3" fill="#FFFFFF"></path>
                                <path d="M46.8836972,37.5859694 L31.5484893,37.5859694 C30.4572385,37.5859694 29.7250703,38.5687344 29.7250703,39.6658164 C29.7250703,40.7628985 30.4572385,41.7457218 31.5484893,41.7457218 L39.5722997,41.7457218 C41.4724159,39.804025 44.1515321,38.2094854 46.8836972,37.5859694" id="Fill-4" fill="#FFFFFF"></path>
                                <path d="M29.7250703,48.2904784 C29.7250703,49.3875021 30.4081407,50.3703255 31.4993914,50.3703255 L36.1367859,50.3703255 C36.3411957,48.8653936 36.7455994,47.3851711 37.7059419,46.2106314 L31.5484893,46.2106314 C30.4572385,46.2106314 29.7250703,47.1934548 29.7250703,48.2904784" id="Fill-5" fill="#FFFFFF"></path>
                                <path d="M50.1339755,41.2720974 C44.1751804,41.2720974 39.3466239,46.1263978 39.3466239,52.1170932 C39.3466239,58.1080223 44.1751223,62.9621474 50.1339755,62.9621474 C56.0930031,62.9621474 60.9213853,58.1080223 60.9213853,52.1170932 C60.9213853,46.1264562 56.0930031,41.2720974 50.1339755,41.2720974 L50.1339755,41.2720974 L50.1339755,41.2720974 Z M57.6083547,49.5282225 L49.3253425,57.8553797 C49.0585291,58.1237942 48.7051407,58.2579722 48.3518104,58.2579722 C47.9984801,58.2579722 47.6453242,58.1237942 47.3782783,57.8553797 L42.6677309,53.1196022 C42.1337554,52.5827733 42.1337554,51.70679 42.6677309,51.1700195 C43.2016483,50.6331905 44.0729755,50.6331905 44.606893,51.1700195 L48.3518104,54.9349485 L55.6611162,47.5865841 C56.1950336,47.0498136 57.0665933,47.0498136 57.6004526,47.5865841 C58.1498838,48.1152935 58.1498838,48.9915104 57.6083547,49.5282225 L57.6083547,49.5282225 L57.6083547,49.5282225 Z" id="Fill-6" fill="#FFFFFF"></path>
                                <circle id="Oval" stroke="#FFFFFF" stroke-width="3" cx="41" cy="41" r="41"></circle>
                            </g>
                            <path d="M40,132.5 L40,189.50877" id="Line" stroke="#FFFFFF" stroke-width="2"></path>
                            <path d="M40,302.5 L40,359.50877" id="Line" stroke="#FFFFFF" stroke-width="2"></path>
                            <text id="在线考核评分" fill="#FFFFFF" font-family="STHeitiSC-Medium, Heiti SC" font-size="26" font-weight="bold">
                                <tspan x="116" y="232">在线考核评分</tspan>
                            </text>
                            <text id="考核结果统计" fill="#FFFFFF" font-family="STHeitiSC-Medium, Heiti SC" font-size="26" font-weight="bold">
                                <tspan x="116" y="409">考核结果统计</tspan>
                            </text>
                        </g>
                    </g>
                </g>
            </g>
        </g>
    </g>
</svg>